<svg width="64" height="62" viewBox="0 0 64 62" fill="none" xmlns="http://www.w3.org/2000/svg">
<path fill-rule="evenodd" clip-rule="evenodd" d="M15.195 39.0901H30.751V55.3081C28.882 55.3081 27.008 55.3061 25.133 55.3101C22.531 55.3141 19.924 55.3821 17.326 55.3141C14.448 55.2381 12.276 53.8901 10.931 51.3301C8.259 46.2571 5.636 41.1631 2.949 36.1001C1.648 33.6541 1.717 31.3831 3.337 29.0901C4.337 27.6761 5.154 26.1341 6.145 24.4961C4.148 23.2761 2.169 22.0711 0 20.7471C0.424 20.6671 0.643 20.5911 0.863 20.5871C5.883 20.5281 10.913 20.4541 15.923 20.4661C16.495 20.4681 17.313 20.8171 17.598 21.2671C20.647 26.0821 23.608 30.9491 26.591 35.8021C26.618 35.8531 26.595 35.9341 26.595 36.2051L19.46 31.9011L15.19 39.0871M29.398 40.5881C29.232 40.5361 29.127 40.4741 29.021 40.4741C24.339 40.4621 19.662 40.4471 14.981 40.4821C14.66 40.4861 14.237 40.8091 14.05 41.1051C13.404 42.1201 12.856 43.1971 12.243 44.2361C9.713 48.5111 12.471 53.7031 17.445 53.9421C19.365 54.0361 21.289 53.9791 23.211 53.9831C25.271 53.9891 27.33 53.9831 29.398 53.9831V40.5881" fill="white"/>
<path fill-rule="evenodd" clip-rule="evenodd" d="M11.416 43.4502C11.416 43.4502 15.18 44.2422 15.231 44.2912C15.282 44.3422 16.999 49.4132 17.034 49.4992C17.069 49.5822 15.231 54.7022 15.231 54.7022L11.231 50.7022L9.78799 45.1562L11.42 43.4542" fill="white"/>
<path fill-rule="evenodd" clip-rule="evenodd" d="M30.687 39.2397V55.3197C28.504 55.3197 26.325 55.3217 24.142 55.3177C22.113 55.3137 20.08 55.3837 18.051 55.2707C12.793 54.9827 9.88 48.7477 12.553 43.6157C13.201 42.3697 13.78 41.0747 14.466 39.8557C14.662 39.5027 15.111 39.1117 15.445 39.1077C20.393 39.0647 25.34 39.0867 30.286 39.1077C30.398 39.1077 30.51 39.1847 30.687 39.2467" fill="#FAFCFF"/>
<path fill-rule="evenodd" clip-rule="evenodd" d="M33.23 9.478C30.749 14.19 28.383 18.679 25.981 23.238C21.167 20.702 16.466 18.228 11.631 15.68C12.502 14.027 13.378 12.371 14.248 10.712C15.456 8.406 16.61 6.069 17.882 3.799C19.29 1.291 21.494 0 24.386 0C30.117 0 35.852 0.0550001 41.583 0.0350001C44.353 0.0340001 46.331 1.143 47.603 3.645C48.386 5.189 49.374 6.628 50.359 8.27C52.369 7.07 54.355 5.882 56.542 4.578C56.414 4.991 56.379 5.221 56.277 5.415C53.987 9.886 51.716 14.365 49.366 18.801C49.099 19.307 48.412 19.868 47.876 19.911C42.198 20.363 36.512 20.717 30.826 21.095C30.769 21.095 30.711 21.036 30.472 20.908L37.603 16.6C36.175 14.272 34.767 11.98 33.233 9.478M25.283 21.349C25.408 21.226 25.513 21.162 25.564 21.069C27.751 16.933 29.945 12.8 32.097 8.641C32.243 8.361 32.154 7.833 31.978 7.531C31.382 6.483 30.683 5.498 30.048 4.469C27.446 0.24 21.567 0.261 19.038 4.549C18.06 6.202 17.217 7.933 16.318 9.632C15.352 11.453 14.396 13.279 13.434 15.106C17.498 17.248 21.395 19.3 25.286 21.349" fill="white"/>
<path fill-rule="evenodd" clip-rule="evenodd" d="M31.13 4.09864C31.13 4.09864 28.676 7.05864 28.608 7.08164C28.538 7.10264 23.251 6.26364 23.161 6.25164C23.068 6.24264 19.393 2.23164 19.393 2.23164L24.803 0.556641L30.386 1.86564L31.13 4.10064" fill="white"/>
<path fill-rule="evenodd" clip-rule="evenodd" d="M25.871 23.1101C21.201 20.6511 16.523 18.1851 11.64 15.6151C12.661 13.6851 13.673 11.7571 14.691 9.8291C15.644 8.0331 16.527 6.2011 17.571 4.4601C20.278 -0.0558999 27.154 0.2691 30.447 5.0271C31.245 6.1821 32.126 7.2961 32.885 8.4701C33.103 8.8111 33.24 9.3871 33.086 9.6871C30.817 14.0831 28.496 18.4511 26.181 22.8171C26.128 22.9171 26.011 22.9811 25.871 23.1071" fill="#FAFCFF"/>
<path fill-rule="evenodd" clip-rule="evenodd" d="M50.07 39.5324L42.175 26.1284C46.867 23.3674 51.445 20.6714 56.153 17.8994C57.102 19.5094 58.049 21.1244 59.001 22.7404C60.327 24.9774 61.708 27.1924 62.97 29.4644C64.361 31.9824 64.302 34.5354 62.781 36.9964C59.761 41.8714 56.704 46.7184 53.711 51.6034C52.264 53.9654 50.27 55.0584 47.474 54.8204C45.75 54.6764 44.007 54.7584 42.091 54.7354L41.982 61.9324C41.696 61.6114 41.517 61.4564 41.406 61.2664C38.808 56.9704 36.195 52.6804 33.655 48.3474C33.367 47.8534 33.255 46.9724 33.5 46.4974C36.098 41.4304 38.791 36.4074 41.457 31.3774C41.486 31.3304 41.567 31.3094 41.804 31.1704C41.777 33.9644 41.747 36.6594 41.718 39.5014C44.446 39.5154 47.138 39.5234 50.074 39.5364M44.158 26.5264C44.195 26.6974 44.195 26.8184 44.247 26.9114C46.615 30.9514 48.976 34.9914 51.383 39.0014C51.544 39.2734 52.041 39.4774 52.393 39.4884C53.598 39.5314 54.806 39.4534 56.011 39.4574C60.977 39.4694 64.051 34.4574 61.737 30.0474C60.842 28.3474 59.812 26.7174 58.842 25.0604C57.8 23.2824 56.751 21.5064 55.703 19.7264C51.746 22.0584 47.95 24.2914 44.163 26.5234" fill="white"/>
<path fill-rule="evenodd" clip-rule="evenodd" d="M55.748 40.5752C55.748 40.5752 54.52 36.9332 54.536 36.8622C54.556 36.7922 58.052 32.7392 58.11 32.6652C58.162 32.5912 63.509 31.5762 63.509 31.5762L62.092 37.0582L58.039 41.1192L55.748 40.5752Z" fill="white"/>
<path fill-rule="evenodd" clip-rule="evenodd" d="M42.34 26.1102L56.199 17.9492C57.307 19.8302 58.418 21.7072 59.517 23.5892C60.543 25.3412 61.636 27.0572 62.567 28.8602C64.984 33.5402 61.093 39.2142 55.313 39.5142C53.911 39.5872 52.501 39.7452 51.105 39.7752C50.698 39.7762 50.133 39.5952 49.963 39.3052C47.418 35.0642 44.923 30.7932 42.425 26.5232C42.369 26.4282 42.377 26.2922 42.34 26.1102" fill="#FAFCFF"/>
</svg>
