<?xml version="1.0" standalone="no"?>
<!DOCTYPE svg PUBLIC "-//W3C//DTD SVG 20010904//EN"
 "http://www.w3.org/TR/2001/REC-SVG-20010904/DTD/svg10.dtd">
<svg version="1.0" xmlns="http://www.w3.org/2000/svg"
 width="912.000000pt" height="1280.000000pt" viewBox="0 0 912.000000 1280.000000"
 preserveAspectRatio="xMidYMid meet">
<metadata>
Created by potrace 1.15, written by Peter Selinger 2001-2017
</metadata>
<g transform="translate(0.000000,1280.000000) scale(0.100000,-0.100000)"
fill="#000000" stroke="none">
<path d="M6555 12793 c-172 -21 -363 -92 -512 -189 -78 -51 -249 -224 -302
-304 -137 -211 -200 -439 -188 -684 27 -590 491 -1049 1082 -1073 497 -20 950
289 1108 757 80 236 82 499 5 725 -98 287 -304 523 -576 659 -172 87 -431 132
-617 109z"/>
<path d="M5391 10029 c-24 -5 -61 -19 -81 -33 -24 -15 -237 -291 -635 -820
l-598 -796 -975 0 c-739 0 -985 -3 -1016 -12 -54 -16 -131 -93 -145 -144 -14
-51 -14 -487 0 -537 13 -49 73 -115 124 -138 38 -18 99 -19 1190 -19 l1151 0
41 23 c110 59 141 94 508 582 l360 477 5 -4073 5 -4074 22 -65 c71 -206 242
-356 445 -390 300 -51 566 98 671 376 l22 59 5 2465 5 2465 185 0 185 0 5
-2470 5 -2470 23 -60 c31 -82 96 -178 156 -231 188 -166 487 -191 711 -60 71
42 155 132 197 212 74 141 68 -262 68 4261 l0 4073 120 0 120 0 0 -1564 c0
-1493 1 -1567 18 -1624 35 -111 112 -196 228 -249 54 -25 69 -27 179 -27 110
0 125 2 179 27 116 53 193 138 228 249 17 57 18 142 18 2056 0 1710 -2 2007
-15 2066 -45 212 -211 387 -430 452 -57 17 -151 18 -1650 20 -886 1 -1610 -2
-1634 -7z"/>
<path d="M1279 6634 c-96 -201 -175 -369 -177 -373 -3 -8 737 -366 742 -359 7
7 356 742 353 743 -1 0 -166 79 -367 175 -201 95 -368 175 -371 176 -3 2 -84
-161 -180 -362z"/>
<path d="M2075 5709 c-212 -114 -350 -194 -349 -202 1 -12 368 -704 379 -715
2 -3 712 373 724 384 7 6 -382 724 -393 723 -6 0 -168 -86 -361 -190z"/>
<path d="M6 5182 c-3 -5 8 -103 24 -218 27 -191 86 -625 250 -1819 74 -538
126 -917 295 -2150 74 -540 135 -984 135 -988 0 -4 614 -7 1365 -7 751 0 1365
3 1365 6 0 3 22 169 50 367 105 764 273 1988 321 2337 27 201 67 493 89 650
22 157 84 616 140 1020 55 404 103 752 106 773 l6 37 -388 -2 -388 -3 -57
-420 c-32 -231 -148 -1079 -259 -1885 -110 -806 -220 -1602 -243 -1770 l-42
-305 -700 0 -700 0 -121 885 c-67 487 -181 1319 -254 1850 -73 531 -153 1118
-179 1305 l-47 340 -381 3 c-210 1 -384 -2 -387 -6z"/>
<path d="M1655 4488 c-57 -311 -129 -781 -120 -784 19 -7 798 -135 801 -131 4
3 134 780 134 799 0 10 -105 31 -382 76 -211 35 -393 66 -405 69 -18 4 -23 0
-28 -29z"/>
</g>
</svg>
