<?xml version="1.0" standalone="no"?>
<!DOCTYPE svg PUBLIC "-//W3C//DTD SVG 20010904//EN"
 "http://www.w3.org/TR/2001/REC-SVG-20010904/DTD/svg10.dtd">
<svg version="1.0" xmlns="http://www.w3.org/2000/svg"
 width="1230.000000pt" height="1280.000000pt" viewBox="0 0 1230.000000 1280.000000"
 preserveAspectRatio="xMidYMid meet">
<metadata>
Created by potrace 1.15, written by Peter Selinger 2001-2017
</metadata>
<g transform="translate(0.000000,1280.000000) scale(0.100000,-0.100000)"
fill="#000000" stroke="none">
<path d="M5500 12794 c-460 -30 -680 -59 -990 -130 -298 -69 -541 -142 -556
-166 -17 -27 231 12 679 106 305 64 528 86 867 86 466 0 905 -66 1235 -186 39
-14 133 -47 210 -74 786 -268 1320 -547 1875 -980 406 -317 873 -774 1155
-1130 779 -983 1089 -2052 934 -3224 -75 -564 -272 -1183 -560 -1757 -251
-502 -710 -1081 -1309 -1651 -311 -295 -626 -552 -915 -745 -420 -280 -1024
-548 -1607 -713 -305 -87 -529 -120 -804 -120 l-192 0 -6 -62 c-6 -60 -11
-183 -37 -858 -7 -162 -13 -296 -14 -298 -3 -4 -514 173 -585 203 -913 387
-2408 1629 -2955 2454 -74 112 -305 531 -305 553 0 22 304 625 364 723 363
587 945 1146 1656 1591 352 221 667 372 1150 551 245 91 331 115 431 120 85 5
86 5 121 -26 64 -56 69 -91 78 -556 9 -430 16 -495 58 -555 43 -59 120 -73
260 -45 139 28 662 210 882 307 1120 493 2173 1437 2533 2269 125 289 127 451
8 694 -84 170 -308 491 -516 740 -527 630 -1357 1303 -2100 1702 -167 90 -588
293 -685 331 -175 69 -279 81 -341 39 -81 -54 -99 -187 -99 -733 l0 -372 -222
-5 c-247 -5 -340 -20 -708 -112 -858 -215 -1634 -616 -2355 -1215 -895 -744
-1581 -1712 -1910 -2695 -109 -325 -162 -565 -201 -915 -22 -192 -25 -782 -6
-990 67 -714 186 -1140 483 -1725 356 -703 785 -1274 1274 -1696 507 -438
1239 -870 1940 -1144 508 -199 945 -298 1600 -361 225 -22 847 -25 1060 -6
900 83 1627 283 2374 652 1040 514 1901 1274 2534 2235 478 726 838 1617 941
2330 51 345 70 674 70 1175 1 494 -19 818 -70 1165 -49 337 -157 720 -319
1130 -488 1234 -1336 2281 -2445 3019 -417 278 -780 469 -1242 652 -595 237
-1042 337 -1778 400 -162 13 -815 26 -940 18z"/>
</g>
</svg>
