<?xml version="1.0" standalone="no"?>
<!DOCTYPE svg PUBLIC "-//W3C//DTD SVG 20010904//EN"
 "http://www.w3.org/TR/2001/REC-SVG-20010904/DTD/svg10.dtd">
<svg version="1.0" xmlns="http://www.w3.org/2000/svg"
 width="1280.000000pt" height="1280.000000pt" viewBox="0 0 1280.000000 1280.000000"
 preserveAspectRatio="xMidYMid meet">
<metadata>
Created by potrace 1.15, written by Peter Selinger 2001-2017
</metadata>
<g transform="translate(0.000000,1280.000000) scale(0.100000,-0.100000)"
fill="#000000" stroke="none">
<path d="M6495 12789 c-698 -5 -1353 -12 -1455 -15 l-185 -6 83 -28 c554 -188
1020 -620 1429 -1325 139 -240 1175 -2154 1169 -2163 -2 -4 -183 -123 -400
-263 l-396 -254 288 -6 c158 -4 739 -9 1292 -13 553 -3 1079 -9 1170 -12 l165
-6 665 1098 c366 604 716 1181 778 1283 61 101 111 185 110 186 -2 2 -208
-104 -458 -235 -250 -131 -456 -238 -456 -237 -4 5 -576 1058 -640 1179 -89
168 -143 244 -253 360 -204 215 -466 366 -771 444 -85 22 -450 24 -2135 13z"/>
<path d="M4285 12663 c-205 -26 -428 -132 -592 -280 -51 -46 -1509 -2291
-1496 -2303 4 -5 624 -373 1377 -820 802 -474 1373 -807 1378 -802 5 5 337
544 739 1198 l729 1188 -75 143 c-544 1039 -1302 1693 -1947 1682 -46 -1 -96
-4 -113 -6z"/>
<path d="M10163 7806 c-1009 -615 -1362 -835 -1359 -847 2 -9 223 -423 491
-920 269 -497 566 -1048 661 -1224 l173 -320 248 -3 c1037 -12 1911 314 2251
838 121 188 182 421 169 650 -13 216 26 128 -647 1453 -337 664 -616 1207
-619 1206 -3 -1 -619 -375 -1368 -833z"/>
<path d="M1740 8598 c-575 -4 -1183 -11 -1353 -16 l-307 -7 420 -328 c231
-181 420 -333 420 -338 0 -6 -191 -376 -425 -823 -233 -447 -435 -846 -449
-887 -77 -231 -53 -479 69 -724 77 -153 170 -279 310 -421 353 -357 697 -501
1345 -564 137 -13 584 -27 725 -22 l100 4 564 923 563 923 77 -41 c42 -23 231
-125 421 -228 190 -103 346 -186 348 -184 2 2 -246 466 -552 1032 -305 565
-637 1181 -738 1368 l-184 340 -154 1 c-85 0 -625 -3 -1200 -8z"/>
<path d="M7447 3933 l-718 -1295 238 -436 c132 -241 455 -832 718 -1314 l480
-877 6 72 c4 39 12 250 18 467 6 217 14 420 17 450 l5 55 767 0 c697 0 775 2
855 18 197 40 405 127 582 244 134 89 320 276 391 393 29 47 424 783 879 1635
455 853 837 1566 848 1585 19 32 16 31 -39 -20 -338 -310 -723 -496 -1214
-585 -330 -60 -279 -59 -1726 -62 l-1330 -4 -23 438 c-13 241 -26 459 -30 485
l-6 47 -718 -1296z"/>
<path d="M210 4987 c0 -3 101 -192 224 -419 123 -227 504 -930 846 -1563 342
-632 654 -1208 693 -1280 60 -109 85 -144 156 -216 207 -207 498 -342 891
-414 257 -46 292 -48 1548 -52 l1192 -4 0 1609 0 1609 -622 7 c-343 3 -1071 9
-1618 12 -1938 11 -1846 10 -1970 28 -507 75 -931 278 -1254 602 -47 48 -86
84 -86 81z"/>
</g>
</svg>
