<svg width="57" height="56" viewBox="0 0 57 56" fill="none" xmlns="http://www.w3.org/2000/svg">
<path d="M47.6467 43.6275C50.2048 40.6037 51.9839 37.0191 52.8337 33.1769C53.6834 29.3346 53.5787 25.3478 52.5285 21.5538C51.4782 17.7597 49.5133 14.2699 46.7999 11.3797C44.0866 8.48951 40.7046 6.28386 36.94 4.94937C33.1755 3.61487 29.1392 3.19078 25.1726 3.71298C21.2059 4.23518 17.4256 5.68831 14.1515 7.94943C10.8774 10.2105 8.20577 13.2131 6.36261 16.7032C4.51945 20.1933 3.559 24.0682 3.56251 28C3.56385 33.7159 5.61406 39.2487 9.35335 43.6275L9.31773 43.6573C9.44242 43.8043 9.58492 43.9303 9.71317 44.0755C9.87348 44.2558 10.0463 44.4255 10.2119 44.6005C10.7107 45.1325 11.2237 45.6435 11.7616 46.123C11.9255 46.27 12.0947 46.4065 12.2604 46.5465C12.8304 47.0295 13.4164 47.488 14.0238 47.915C14.1022 47.9675 14.1734 48.0358 14.2518 48.09V48.069C18.4237 50.9533 23.4005 52.5013 28.5018 52.5013C33.6031 52.5013 38.5799 50.9533 42.7518 48.069V48.09C42.8302 48.0358 42.8996 47.9675 42.9798 47.915C43.5854 47.4863 44.1732 47.0295 44.7432 46.5465C44.9089 46.4065 45.0781 46.2683 45.242 46.123C45.7799 45.6418 46.2929 45.1325 46.7917 44.6005C46.9573 44.4255 47.1283 44.2558 47.2904 44.0755C47.4169 43.9303 47.5612 43.8043 47.6859 43.6555L47.6467 43.6275ZM28.5 14C30.0854 14 31.6351 14.4619 32.9533 15.3272C34.2714 16.1925 35.2988 17.4224 35.9055 18.8614C36.5122 20.3004 36.6709 21.8838 36.3616 23.4114C36.0523 24.939 35.2889 26.3422 34.1679 27.4435C33.0469 28.5448 31.6187 29.2949 30.0638 29.5987C28.5089 29.9026 26.8972 29.7466 25.4326 29.1506C23.9679 28.5546 22.716 27.5452 21.8353 26.2502C20.9545 24.9551 20.4844 23.4326 20.4844 21.875C20.4844 19.7865 21.3289 17.7834 22.8321 16.3066C24.3353 14.8297 26.3741 14 28.5 14V14ZM14.2625 43.6275C14.2934 41.3297 15.2439 39.1363 16.9083 37.5217C18.5727 35.9071 20.8172 35.0012 23.1563 35H33.8438C36.1828 35.0012 38.4273 35.9071 40.0917 37.5217C41.7562 39.1363 42.7066 41.3297 42.7375 43.6275C38.831 47.0861 33.7587 49.0002 28.5 49.0002C23.2413 49.0002 18.169 47.0861 14.2625 43.6275V43.6275Z" fill="#076735"/>
</svg>
