<svg width="56" height="56" viewBox="0 0 56 56" fill="none" xmlns="http://www.w3.org/2000/svg">
<path d="M10.5 52.5H45.5V43.75C45.4963 40.5022 44.2045 37.3886 41.908 35.092C39.6114 32.7955 36.4978 31.5037 33.25 31.5H22.75C19.5022 31.5037 16.3886 32.7955 14.092 35.092C11.7955 37.3886 10.5037 40.5022 10.5 43.75V52.5ZM15.75 15.75C15.75 18.1728 16.4684 20.5412 17.8145 22.5557C19.1605 24.5702 21.0737 26.1404 23.3121 27.0675C25.5505 27.9947 28.0136 28.2373 30.3899 27.7646C32.7661 27.292 34.9489 26.1253 36.6621 24.4121C38.3753 22.6989 39.542 20.5161 40.0146 18.1399C40.4873 15.7636 40.2447 13.3005 39.3175 11.0621C38.3904 8.82373 36.8202 6.91054 34.8057 5.5645C32.7912 4.21845 30.4228 3.5 28 3.5C24.7511 3.5 21.6353 4.79062 19.3379 7.08794C17.0406 9.38526 15.75 12.5011 15.75 15.75V15.75Z" fill="#076735"/>
</svg>
