<svg width="40" height="40" viewBox="0 0 40 40" fill="none" xmlns="http://www.w3.org/2000/svg">
    <path
        d="M31.4283 5.80833L28.5717 7.525L33.3333 15.4617V26.6667H31.6667V23.3333C31.6667 22.4493 31.3155 21.6014 30.6904 20.9763C30.0652 20.3512 29.2174 20 28.3333 20H26.6667V5H6.66667V31.6667H5V35H28.3333V31.6667H26.6667V23.3333H28.3333V26.6667C28.3333 27.5507 28.6845 28.3986 29.3096 29.0237C29.9348 29.6488 30.7826 30 31.6667 30H33.3333C34.2174 30 35.0652 29.6488 35.6904 29.0237C36.3155 28.3986 36.6667 27.5507 36.6667 26.6667V14.5383L31.4283 5.80833ZM23.3333 31.6667H10V15H23.3333V31.6667ZM23.3333 11.6667H10V8.33333H23.3333V11.6667Z"
        fill="currentColor" />
    <path
        d="M16.6667 30.0002C17.9719 29.9356 19.2065 29.3881 20.1306 28.4641C21.0546 27.54 21.6021 26.3054 21.6667 25.0002C21.6667 22.8736 19 19.9702 17.845 18.8219L16.6667 17.6436L15.4884 18.8219C14.3334 19.9702 11.6667 22.8736 11.6667 25.0002C11.7313 26.3054 12.2788 27.54 13.2028 28.4641C14.1269 29.3881 15.3615 29.9356 16.6667 30.0002ZM16.6667 22.4669C17.3716 23.203 17.9364 24.0615 18.3334 25.0002C18.2757 25.4219 18.0816 25.8132 17.7806 26.1142C17.4797 26.4151 17.0884 26.6093 16.6667 26.6669C16.2493 26.6102 15.8614 26.4201 15.561 26.1248C15.2606 25.8295 15.0638 25.4449 15 25.0286C15.3913 24.0784 15.9565 23.2096 16.6667 22.4669Z"
        fill="currentColor" />
</svg>