<svg width="72" height="72" viewBox="0 0 72 72" fill="none" xmlns="http://www.w3.org/2000/svg">
    <path
        d="M45 16.2C45 18.5869 44.0518 20.8761 42.364 22.564C40.6761 24.2518 38.3869 25.2 36 25.2C33.613 25.2 31.3239 24.2518 29.636 22.564C27.9482 20.8761 27 18.5869 27 16.2C27 13.8131 27.9482 11.5239 29.636 9.83604C31.3239 8.14821 33.613 7.2 36 7.2C38.3869 7.2 40.6761 8.14821 42.364 9.83604C44.0518 11.5239 45 13.8131 45 16.2ZM63 18C63 19.9096 62.2414 21.7409 60.8912 23.0912C59.5409 24.4414 57.7096 25.2 55.8 25.2C53.8904 25.2 52.0591 24.4414 50.7088 23.0912C49.3586 21.7409 48.6 19.9096 48.6 18C48.6 16.0904 49.3586 14.2591 50.7088 12.9088C52.0591 11.5586 53.8904 10.8 55.8 10.8C57.7096 10.8 59.5409 11.5586 60.8912 12.9088C62.2414 14.2591 63 16.0904 63 18ZM16.2 25.2C18.1096 25.2 19.9409 24.4414 21.2912 23.0912C22.6414 21.7409 23.4 19.9096 23.4 18C23.4 16.0904 22.6414 14.2591 21.2912 12.9088C19.9409 11.5586 18.1096 10.8 16.2 10.8C14.2904 10.8 12.4591 11.5586 11.1088 12.9088C9.75857 14.2591 9 16.0904 9 18C9 19.9096 9.75857 21.7409 11.1088 23.0912C12.4591 24.4414 14.2904 25.2 16.2 25.2ZM21.6 33.3C21.6 30.816 23.616 28.8 26.1 28.8H45.9C48.384 28.8 50.4 30.816 50.4 33.3V50.4C50.4 54.2191 48.8829 57.8818 46.1823 60.5823C43.4818 63.2829 39.8191 64.8 36 64.8C32.1809 64.8 28.5182 63.2829 25.8177 60.5823C23.1171 57.8818 21.6 54.2191 21.6 50.4V33.3ZM18 33.3C18 31.6332 18.504 30.0888 19.3644 28.8H11.7C9.216 28.8 7.2 30.816 7.2 33.3V46.8C7.19983 48.3412 7.52954 49.8646 8.16696 51.2679C8.80439 52.6711 9.73477 53.9217 10.8956 54.9355C12.0564 55.9494 13.4208 56.703 14.897 57.1458C16.3733 57.5886 17.9272 57.7103 19.4544 57.5028C18.4912 55.2589 17.9963 52.8419 18 50.4V33.3ZM54 50.4C54 52.92 53.4816 55.3248 52.5456 57.5028C54.0728 57.7103 55.6267 57.5886 57.103 57.1458C58.5792 56.703 59.9436 55.9494 61.1044 54.9355C62.2652 53.9217 63.1956 52.6711 63.833 51.2679C64.4705 49.8646 64.8002 48.3412 64.8 46.8V33.3C64.8 30.816 62.784 28.8 60.3 28.8H52.6356C53.4996 30.0888 54 31.6332 54 33.3V50.4Z"
        fill="currentColor" />
    <path
        d="M45.91 48.36L43.41 52.69C42.92 53.55 42.01 54 41.09 53.94H39.09V55.94L36.59 51.44L39.09 46.94V48.94H41.91L39.69 45.09L44.02 42.59L45.82 45.71C46.34 46.48 46.41 47.51 45.91 48.36ZM33.3 36H38.3C39.28 36 40.13 36.57 40.54 37.39L41.54 39.13L43.27 38.13L40.63 42.54L35.48 42.63L37.21 41.63L35.8 39.18L33.59 43.03L29.25 40.53L31.05 37.41C31.46 36.58 32.31 36 33.3 36M29.14 52.7L26.64 48.37C26.15 47.52 26.22 46.5 26.73 45.73L27.73 44L26 43L31.14 43.08L33.79 47.5L32.06 46.5L30.65 48.94H35.09V53.94H31.49C31.0215 53.9739 30.5529 53.8757 30.1375 53.6565C29.722 53.4373 29.3764 53.1059 29.14 52.7V52.7Z"
        fill="#F5F5F5" />
</svg>