<svg width="40" height="40" viewBox="0 0 40 40" fill="none" xmlns="http://www.w3.org/2000/svg">
    <path
        d="M29.3333 17L28.3333 16.25L27.3333 17C26.5817 17.5633 20 22.6667 20 28.3333C20 30.5435 20.878 32.6631 22.4408 34.2259C24.0036 35.7887 26.1232 36.6667 28.3333 36.6667C30.5435 36.6667 32.6631 35.7887 34.2259 34.2259C35.7887 32.6631 36.6667 30.5435 36.6667 28.3333C36.6667 22.6667 30.085 17.5633 29.3333 17ZM28.3333 33.3333C27.0073 33.3333 25.7355 32.8066 24.7978 31.8689C23.8601 30.9312 23.3333 29.6594 23.3333 28.3333C23.3333 25.4867 26.365 22.2167 28.3333 20.4867C30.3017 22.2167 33.3333 25.4867 33.3333 28.3333C33.3333 29.6594 32.8066 30.9312 31.8689 31.8689C30.9312 32.8066 29.6594 33.3333 28.3333 33.3333Z"
        fill="currentColor" />
    <path
        d="M12.5917 11.9468L11.6667 11.3335L10.7417 11.9502C10.5083 12.1035 5 15.8418 5 21.6668C5 23.4349 5.70238 25.1306 6.95262 26.3809C8.20286 27.6311 9.89856 28.3335 11.6667 28.3335C13.4348 28.3335 15.1305 27.6311 16.3807 26.3809C17.631 25.1306 18.3333 23.4349 18.3333 21.6668C18.3333 15.8418 12.8333 12.1035 12.5917 11.9468ZM11.6667 25.0002C10.7826 25.0002 9.93477 24.649 9.30964 24.0239C8.68452 23.3987 8.33333 22.5509 8.33333 21.6668C8.43825 20.4601 8.78792 19.2874 9.36102 18.2203C9.93412 17.1532 10.7186 16.2141 11.6667 15.4602C12.6146 16.2142 13.399 17.1534 13.9721 18.2205C14.5451 19.2875 14.8949 20.4602 15 21.6668C15 22.5509 14.6488 23.3987 14.0237 24.0239C13.3986 24.649 12.5507 25.0002 11.6667 25.0002Z"
        fill="currentColor" />
    <path
        d="M28.3334 10.0002C28.3334 7.87355 25.6667 4.97022 24.5117 3.82189L23.3334 2.64355L22.155 3.82189C21 4.97022 18.3334 7.87355 18.3334 10.0002C18.3334 11.3263 18.8602 12.5981 19.7978 13.5358C20.7355 14.4734 22.0073 15.0002 23.3334 15.0002C24.6595 15.0002 25.9312 14.4734 26.8689 13.5358C27.8066 12.5981 28.3334 11.3263 28.3334 10.0002ZM21.6667 10.0286C22.0566 9.07764 22.622 8.20862 23.3334 7.46689C24.0407 8.20804 24.6057 9.07299 25 10.0186C25.0014 10.4606 24.827 10.885 24.5154 11.1985C24.2038 11.512 23.7804 11.6889 23.3384 11.6902C22.8963 11.6915 22.4719 11.5172 22.1584 11.2056C21.8449 10.894 21.668 10.4706 21.6667 10.0286Z"
        fill="currentColor" />
</svg>