<svg width="89" height="107" viewBox="0 0 89 107" fill="none" xmlns="http://www.w3.org/2000/svg">
    <path opacity="0.881" fill-rule="evenodd" clip-rule="evenodd"
        d="M38.9948 1.38761C44.048 0.859058 48.4319 2.29806 52.146 5.70461C52.5164 6.08087 52.5164 6.44063 52.146 6.78386C49.7232 7.49549 47.3272 8.26638 44.9588 9.09654C43.3641 7.49728 41.4272 6.67498 39.1478 6.62969C33.9989 7.03965 30.4819 9.66068 28.5962 14.4928C26.8631 15.1609 25.13 15.829 23.3969 16.4971C22.9635 14.8025 23.1164 13.1579 23.8557 11.5634C26.1143 7.82787 29.2237 5.05265 33.1838 3.23775C35.1522 2.60995 37.0891 1.99324 38.9948 1.38761Z"
        fill="currentColor" />
    <path opacity="0.912" fill-rule="evenodd" clip-rule="evenodd"
        d="M43.5825 10.6383C45.0361 9.99451 46.4632 9.53197 47.8643 9.25072C48.9708 8.95285 49.9902 9.10702 50.9227 9.71325C51.0469 9.38717 51.0469 8.97603 50.9227 8.47982C53.3654 7.76181 55.8122 7.04233 58.2629 6.32132C58.7525 6.5265 59.2113 6.62931 59.6392 6.62968C59.7536 6.34716 59.9065 6.09018 60.0979 5.85879C62.8297 5.26014 65.5312 4.59203 68.2027 3.85447C68.4135 4.11863 68.6682 4.32419 68.9674 4.47118C69.4934 4.02255 70.1051 3.76557 70.8024 3.70029C74.3942 2.87337 77.2997 3.84984 79.5189 6.62968C80.2743 7.78969 80.4273 9.02312 79.9777 10.33C67.6119 12.7787 55.3782 15.8109 43.2766 19.4265C34.3873 22.6191 25.5179 25.8055 16.6684 28.9856C13.3356 30.7545 9.9713 32.4506 6.5756 34.0735C5.8124 33.565 5.35364 32.8453 5.19931 31.915C5.07924 30.2596 5.02826 28.6664 5.04639 27.1354C6.24364 25.8258 7.61993 24.7465 9.17526 23.8977C9.4644 24.0227 9.66831 24.2283 9.78694 24.5144C9.88888 25.0283 9.99085 25.5423 10.0928 26.0562C10.1007 24.9435 10.3556 23.9157 10.8574 22.9726C12.6924 22.1503 14.5275 21.3281 16.3625 20.5058C16.7355 20.7412 17.0413 21.0495 17.2801 21.4308C17.5712 20.9543 17.6731 20.4404 17.5859 19.889C19.901 19.0425 22.3477 18.2202 24.9261 17.4222C24.8804 17.7466 24.9314 18.0549 25.079 18.3473C25.4672 17.9141 25.6201 17.4002 25.5378 16.8055C26.1345 16.8897 26.5933 16.6842 26.9141 16.1888C27.016 16.2915 27.118 16.3943 27.2199 16.4971C28.3676 15.5157 29.591 14.899 30.89 14.647C31.0167 14.788 31.1696 14.8908 31.3488 14.9553C32.0305 14.6232 32.7444 14.4176 33.4897 14.3386C33.5931 15.0645 33.746 15.784 33.9485 16.4971C34.0035 15.4316 34.2075 14.4037 34.5601 13.4135C35.1712 13.6514 35.681 13.4459 36.0893 12.7968C36.216 12.9379 36.3689 13.0406 36.5481 13.1052C37.6773 12.6645 38.8496 12.1505 40.0653 11.5634C40.5354 11.7282 40.9941 11.831 41.4416 11.8718C42.0609 11.2352 42.7744 10.824 43.5825 10.6383ZM41.4416 12.1801C42.0034 12.2231 42.1053 12.4287 41.7474 12.7968C41.5034 12.6559 41.4015 12.4504 41.4416 12.1801Z"
        fill="currentColor" />
    <path opacity="0.01" fill-rule="evenodd" clip-rule="evenodd"
        d="M43.5825 10.6383C43.3785 10.2272 43.3785 10.2272 43.5825 10.6383V10.6383Z" fill="currentColor" />
    <path opacity="0.83" fill-rule="evenodd" clip-rule="evenodd"
        d="M52.146 11.255C52.9526 11.765 52.8504 11.9192 51.8402 11.7176C52.0103 11.5996 52.1121 11.4454 52.146 11.255Z"
        fill="#090908" />
    <path opacity="0.01" fill-rule="evenodd" clip-rule="evenodd"
        d="M22.7852 17.4222C23.193 17.6278 23.193 17.6278 22.7852 17.4222V17.4222Z" fill="currentColor" />
    <path opacity="0.89" fill-rule="evenodd" clip-rule="evenodd"
        d="M49.6993 26.9813C51.3591 27.4163 52.5825 28.4442 53.3694 30.0648C55.796 31.4787 57.6818 33.0204 59.0275 34.6902C59.5266 36.2499 59.6795 37.7917 59.4863 39.3156C56.6009 39.3745 53.7462 39.3745 50.9227 39.3156C50.9682 38.9912 50.9175 38.6828 50.7698 38.3905C50.3385 38.7873 49.8798 39.1472 49.3935 39.4697C49.7593 39.6714 49.7593 39.8256 49.3935 39.9323C49.05 39.6104 48.6423 39.405 48.1701 39.3156C46.0861 39.3054 43.9963 39.4084 41.9003 39.6239C40.9813 39.6298 40.1148 39.4241 39.3007 39.0072C39.498 38.6273 39.5487 38.2163 39.4536 37.7738C39.5802 37.9147 39.7331 38.0177 39.9124 38.0821C43.4045 34.5629 46.6666 30.8626 49.6993 26.9813Z"
        fill="currentColor" />
    <path opacity="0.877" fill-rule="evenodd" clip-rule="evenodd"
        d="M62.8505 29.1398C64.3473 29.2008 65.4688 29.9203 66.2148 31.2983C68.0333 32.5598 69.9702 33.5878 72.0258 34.3818C73.8929 35.5629 75.1163 37.2073 75.6959 39.3156C70.8024 39.3156 65.9089 39.3156 61.0155 39.3156C61.328 36.2502 60.3087 33.7833 57.957 31.915C58.2696 31.6516 58.5244 31.3433 58.7217 30.9899C58.8235 31.0926 58.9256 31.1956 59.0275 31.2983C60.2469 30.453 61.521 29.7335 62.8505 29.1398Z"
        fill="currentColor" />
    <path opacity="0.844" fill-rule="evenodd" clip-rule="evenodd"
        d="M34.1014 34.9986C34.5011 34.3942 34.9088 33.7775 35.3247 33.1484C37.0439 30.722 39.2866 30.1052 42.0533 31.2983C42.5772 31.7232 42.9852 32.2372 43.2766 32.8401C41.5083 35.0861 39.5714 37.1934 37.4656 39.1614C36.6414 39.2397 35.8768 39.2912 35.1718 39.3156C34.6699 38.5518 34.0072 37.6779 33.1838 36.6945C33.6337 36.2064 33.9396 35.6409 34.1014 34.9986Z"
        fill="currentColor" />
    <path opacity="0.886" fill-rule="evenodd" clip-rule="evenodd"
        d="M30.1254 33.1484C31.0586 35.1321 32.0779 37.0849 33.1838 39.0072C29.8196 39.4182 26.4553 39.4182 23.0911 39.0072C23.2563 38.6224 23.4602 38.2625 23.7027 37.928C22.9626 38.0427 22.3509 38.4537 21.8677 39.1614C20.9558 39.3149 20.0383 39.3664 19.1151 39.3156C18.6425 37.0519 18.8974 34.8934 19.8797 32.8401C20.7802 33.0735 21.6977 33.2789 22.6323 33.4568C24.8356 33.2129 27.0275 32.9045 29.2079 32.5317C29.5192 32.7454 29.825 32.9508 30.1254 33.1484Z"
        fill="currentColor" />
    <path opacity="0.01" fill-rule="evenodd" clip-rule="evenodd"
        d="M30.1254 32.8401C30.5332 33.0457 30.5332 33.0457 30.1254 32.8401V32.8401Z" fill="currentColor" />
    <path opacity="0.01" fill-rule="evenodd" clip-rule="evenodd"
        d="M35.3247 33.1484C35.1207 32.7374 35.1207 32.7374 35.3247 33.1484V33.1484Z" fill="currentColor" />
    <path opacity="0.01" fill-rule="evenodd" clip-rule="evenodd"
        d="M34.1014 34.9986C33.8974 34.5875 33.8974 34.5875 34.1014 34.9986V34.9986Z" fill="#000001" />
    <path opacity="0.877" fill-rule="evenodd" clip-rule="evenodd"
        d="M24.3144 36.232C25.0826 36.4528 25.0826 36.7611 24.3144 37.1571C23.9895 36.8718 23.9895 36.5635 24.3144 36.232Z"
        fill="#09090A" />
    <path opacity="0.01" fill-rule="evenodd" clip-rule="evenodd"
        d="M54.8986 39.6239C55.3063 39.8296 55.3063 39.8296 54.8986 39.6239V39.6239Z" fill="#010005" />
    <path opacity="0.952" fill-rule="evenodd" clip-rule="evenodd"
        d="M45.4175 40.2406C56.3242 40.4272 67.2323 40.6329 78.1426 40.8573C78.9185 42.5912 78.9185 44.2872 78.1426 45.9452C78.5047 46.3091 78.7087 46.7716 78.7543 47.3328C78.5659 48.4568 78.4637 49.5876 78.4485 50.7248C77.6267 50.6742 76.811 50.7257 76.0017 50.879C76.7152 50.9816 77.4291 51.0846 78.1426 51.1873C78.3335 54.7214 78.1805 58.2675 77.6838 61.8256C77.582 62.0313 77.4799 62.2367 77.378 62.4424C76.5409 62.1001 75.6742 62.0486 74.7784 62.2882C75.3038 62.3949 75.8136 62.5491 76.3076 62.7507C76.7376 62.3906 77.0942 62.4932 77.378 63.0591C77.4291 63.4701 77.4799 63.8815 77.5309 64.2925C76.288 71.974 75.2686 79.6829 74.4725 87.4193C73.9529 87.37 73.443 87.4212 72.9433 87.5735C73.5308 87.6845 74.0407 87.9417 74.4725 88.3444C74.0933 89.8606 73.8382 91.4024 73.7079 92.9697C72.6647 93.2143 71.5942 93.3684 70.4966 93.4323C71.4832 93.802 72.5026 93.9562 73.555 93.8948C73.3883 94.9164 73.2354 95.9441 73.0962 96.9784C72.9433 97.1326 72.7904 97.2867 72.6375 97.4409C55.9302 97.1871 39.5166 97.2386 23.3969 97.5951C22.1735 97.4924 20.9502 97.3894 19.7268 97.2867C19.581 96.9852 19.3771 96.7283 19.1151 96.5158C19.3868 94.8849 19.1829 93.2917 18.5034 91.7363C18.7493 91.049 19.1571 90.9463 19.7268 91.4279C20.4361 91.254 21.1498 91.0999 21.8677 90.9654C20.7528 90.7437 19.6314 90.5895 18.5034 90.5029C18.1287 88.8738 17.9758 87.229 18.0447 85.5692C18.3711 85.3561 18.728 85.2019 19.1151 85.1066C18.5231 84.8559 17.9114 84.7017 17.2801 84.6441C16.184 79.4754 15.1645 74.1818 14.2216 68.7637C14.3236 68.661 14.4256 68.558 14.5275 68.4553C14.3236 67.6329 14.1197 66.8109 13.9158 65.9885C14.0229 63.3628 14.0229 60.6391 13.9158 57.817C15.547 57.7143 15.547 57.6113 13.9158 57.5086C14.0911 53.3039 14.0911 49.2437 13.9158 45.3285C14.2743 45.1993 14.5801 44.994 14.8333 44.7118C14.3372 43.2656 14.5411 41.9295 15.445 40.7032C25.4876 40.6514 35.4786 40.4972 45.4175 40.2406ZM15.445 44.5576C16.4696 44.5068 17.489 44.5583 18.5034 44.7118C17.3866 44.9859 16.2652 45.0886 15.1392 45.0202C15.3092 44.9021 15.4112 44.7479 15.445 44.5576ZM61.933 55.6585C62.6453 56.3804 63.257 57.2028 63.768 58.1254C64.1317 58.4118 64.5394 58.5145 64.9914 58.4337C65.0098 58.6012 65.1116 58.7038 65.2973 58.7421C66.0423 57.1383 66.7561 57.1383 67.4381 58.7421C66.3686 61.5157 65.2982 64.291 64.2268 67.0677C64.125 66.965 64.0228 66.862 63.921 66.7594C63.794 67.3116 63.4882 67.7227 63.0034 67.9928C59.8028 66.8633 56.8462 65.5272 54.134 63.9841C53.9001 63.5013 53.9511 63.0902 54.2869 62.7507C54.8787 62.3468 55.4904 61.9357 56.122 61.5173C54.9295 59.3412 53.4003 57.7479 51.5344 56.7377C54.2793 57.3418 56.2165 58.9863 57.3454 61.6715C56.9863 62.5056 56.3746 63.0196 55.5103 63.2133C57.8445 64.4097 60.2402 65.4889 62.6976 66.451C64.0087 64.2182 65.1813 61.854 66.2148 59.3588C65.3028 59.1022 64.3852 59.0507 63.4622 59.2046C61.1635 55.6021 58.2069 52.6727 54.5928 50.4164C51.3863 48.9786 48.0221 48.3103 44.5 48.4121C49.7923 47.6646 54.5839 48.8981 58.8746 52.1124C60.0722 53.1639 61.0916 54.3458 61.933 55.6585ZM36.5481 58.7421C37.5583 60.5262 38.374 62.4276 38.9948 64.4467C38.8242 65.0813 38.4165 65.4411 37.7715 65.5259C37.0001 65.1368 36.1845 64.9311 35.3247 64.9092C35.1143 66.6465 34.9614 68.394 34.866 70.1513C34.1989 68.4621 33.9949 66.715 34.2543 64.9092C34.4516 64.5558 34.7063 64.2475 35.0189 63.9841C35.8364 63.6968 36.6518 63.6456 37.4656 63.83C36.4463 61.4658 35.4266 59.1019 34.4072 56.7377C31.6861 57.4534 29.1375 58.3785 26.7612 59.513C27.7314 60.1377 28.445 60.8059 28.9021 61.5173C28.2011 63.5099 27.8952 65.5657 27.9845 67.6844C28.1303 69.1534 28.1303 70.5926 27.9845 72.0014C28.4357 72.2003 28.7416 72.7144 28.9021 73.5432C28.6751 73.7859 28.4202 73.9913 28.1375 74.1599C26.51 70.1078 26.3571 65.9965 27.6787 61.8256C26.8048 61.1263 25.9892 60.3554 25.232 59.513C28.0492 57.7596 31.0567 56.372 34.2543 55.3501C34.7776 55.3313 35.1853 55.537 35.4777 55.9669C36.0101 56.833 36.3671 57.7581 36.5481 58.7421ZM50.311 56.2752C50.6159 55.9012 50.9218 55.9527 51.2285 56.4294C50.8991 56.5743 50.5933 56.5228 50.311 56.2752ZM28.2904 74.7767C28.5072 74.4979 28.8131 74.3952 29.2079 74.4683C29.365 75.0887 29.416 75.7054 29.3608 76.3184C29.0459 75.7492 28.6891 75.2352 28.2904 74.7767ZM52.7577 77.5519C52.3678 78.3385 51.8069 78.6468 51.0756 78.4769C50.5275 79.3508 49.7119 79.7622 48.6289 79.7104C48.2719 79.6589 47.9153 79.6077 47.5584 79.5562C47.6603 79.4535 47.7624 79.3505 47.8643 79.2478C47.0116 79.024 46.5528 78.4584 46.488 77.5519C44.4917 79.3588 42.6056 81.2605 40.8299 83.2565C42.712 85.2056 44.6493 87.1069 46.6409 88.9611C46.7932 88.0073 47.099 87.1338 47.5584 86.3401C52.1378 85.6231 56.2159 83.8242 59.7921 80.9438C57.9482 83.6321 55.3993 85.4307 52.146 86.3401C50.7505 86.7949 49.3231 87.0517 47.8643 87.1109C47.9612 88.0582 47.8594 88.9833 47.5584 89.8862C47.1706 90.1723 46.7629 90.2238 46.3351 90.0403C44.259 88.0527 42.2199 86.0483 40.2182 84.0274C39.9063 83.4316 39.8552 82.8149 40.0653 82.1772C40.7901 81.3943 41.5547 80.6749 42.3591 80.0187C42.461 79.7104 42.6649 79.5047 42.9708 79.402C44.1067 77.9478 45.4319 76.7144 46.9467 75.7017C47.5355 75.7295 47.8924 76.0378 48.0172 76.6268C48.119 77.3462 48.2212 78.0659 48.323 78.7853C49.821 78.4705 51.2995 78.0594 52.7577 77.5519ZM29.8196 76.9352C30.0609 77.0224 30.2648 77.1766 30.4313 77.3977C30.0288 77.5605 29.8249 77.4063 29.8196 76.9352ZM59.7921 80.9438C60.1875 80.39 60.6463 79.876 61.1684 79.402C61.1143 80.2303 60.6555 80.744 59.7921 80.9438ZM35.0189 93.2781C36.6625 93.2852 38.2935 93.4394 39.9124 93.7406C37.6696 93.9463 35.4266 93.9463 33.1838 93.7406C33.8591 93.6817 34.4708 93.5276 35.0189 93.2781Z"
        fill="currentColor" />
    <path opacity="0.01" fill-rule="evenodd" clip-rule="evenodd"
        d="M37.7715 97.5951C38.1792 97.8008 38.1792 97.8008 37.7715 97.5951V97.5951Z" fill="#070108" />
    <path opacity="0.01" fill-rule="evenodd" clip-rule="evenodd"
        d="M39.6065 97.9035C40.6696 97.551 41.7909 97.4995 42.9708 97.7493C41.8539 97.9032 40.7326 97.9543 39.6065 97.9035Z"
        fill="#050007" />
    <path opacity="0.01" fill-rule="evenodd" clip-rule="evenodd"
        d="M50.311 97.9035C50.8578 97.5575 51.4695 97.506 52.146 97.7493C51.5426 97.9019 50.9309 97.9534 50.311 97.9035Z"
        fill="#000003" />
    <path opacity="0.01" fill-rule="evenodd" clip-rule="evenodd"
        d="M54.5928 97.5951C55.0005 97.8008 55.0005 97.8008 54.5928 97.5951V97.5951Z" fill="currentColor" />
    <path opacity="0.891" fill-rule="evenodd" clip-rule="evenodd"
        d="M31.9605 98.2118C32.2097 98.4983 32.4645 98.8066 32.7251 99.1369C32.878 98.9827 33.0309 98.8285 33.1838 98.6744C35.1183 98.5202 37.0552 98.469 38.9948 98.5202C38.9493 98.8446 39 99.1529 39.1478 99.4452C39.457 99.1871 39.8139 99.0845 40.2182 99.1369C40.1726 98.8125 40.2234 98.5041 40.3711 98.2118C42.4056 98.4727 44.4957 98.4727 46.6409 98.2118C47.0428 98.4625 47.3997 98.7709 47.7113 99.1369C47.8643 98.9827 48.0172 98.8285 48.1701 98.6744C49.1665 98.609 50.1348 98.4548 51.0756 98.2118C52.6048 98.6229 54.134 98.6229 55.6632 98.2118C55.9691 98.7258 56.3768 99.1369 56.8866 99.4452C57.0753 99.1526 57.0245 98.8958 56.7337 98.6744C59.4077 98.572 62.0584 98.5205 64.6856 98.5202C65.1899 98.8742 65.6487 99.2852 66.0619 99.7536C66.2096 99.4613 66.2603 99.1529 66.2148 98.8285C68.6725 98.7983 71.1193 98.9525 73.555 99.2911C74.9823 100.319 76.2057 101.552 77.2251 102.991C77.0645 103.205 76.8605 103.359 76.6134 103.454C56.374 103.449 36.0866 103.449 15.7509 103.454C15.6489 103.3 15.547 103.146 15.445 102.991C16.239 101.574 17.2585 100.34 18.5034 99.2911C23.0221 99.1492 27.5077 98.7897 31.9605 98.2118Z"
        fill="currentColor" />
</svg>