<svg width="40" height="40" viewBox="0 0 40 40" fill="none" xmlns="http://www.w3.org/2000/svg">
    <path
        d="M15 11.6667H13.3333V5H10V11.6667H8.33333V5H5V16.6667C5 17.5507 5.35119 18.3986 5.97631 19.0237C6.60143 19.6488 7.44928 20 8.33333 20H10V35H13.3333V20H15C15.8841 20 16.7319 19.6488 17.357 19.0237C17.9821 18.3986 18.3333 17.5507 18.3333 16.6667V5H15V11.6667ZM8.33333 16.6667V15H15V16.6667H8.33333Z"
        fill="currentColor" />
    <path
        d="M30.9667 3.98179C30.2829 3.76999 29.5489 3.78543 28.8747 4.0258C28.2004 4.26617 27.6222 4.71854 27.2267 5.31513L25.4133 8.04346C24.084 10.0402 23.2519 12.3261 22.9867 14.7101L21.8833 24.6351C21.832 25.1007 21.8794 25.5719 22.0225 26.0179C22.1655 26.4639 22.4009 26.8748 22.7134 27.2238C23.0258 27.5727 23.4083 27.8519 23.8359 28.0431C24.2635 28.2343 24.7266 28.3332 25.195 28.3335H30V35.0001H33.3333V7.16679C33.3354 6.45159 33.1061 5.7549 32.6795 5.18083C32.2529 4.60676 31.6521 4.18613 30.9667 3.98179ZM30 25.0001H25.195L26.2983 15.0751C26.5056 13.2215 27.1531 11.4444 28.1867 9.89179L30 7.16679V25.0001Z"
        fill="currentColor" />
</svg>