<svg width="32" height="32" viewBox="0 0 32 32" fill="none" xmlns="http://www.w3.org/2000/svg">
<path d="M26.749 24.9298C28.1851 23.2019 29.184 21.1536 29.661 18.958C30.1381 16.7624 30.0793 14.4843 29.4897 12.3162C28.9001 10.1482 27.797 8.15404 26.2737 6.50249C24.7504 4.85094 22.8517 3.59057 20.7383 2.828C18.6248 2.06543 16.3589 1.82309 14.132 2.12149C11.9051 2.41989 9.78282 3.25025 7.94472 4.54232C6.10662 5.83439 4.60675 7.55016 3.57199 9.54449C2.53724 11.5388 1.99804 13.753 2.00001 15.9998C2.00076 19.266 3.15175 22.4276 5.25101 24.9298L5.23101 24.9468C5.30101 25.0308 5.38101 25.1028 5.45301 25.1858C5.54301 25.2888 5.64001 25.3858 5.73301 25.4858C6.01301 25.7898 6.30101 26.0818 6.60301 26.3558C6.69501 26.4398 6.79001 26.5178 6.88301 26.5978C7.20301 26.8738 7.53201 27.1358 7.87301 27.3798C7.91701 27.4098 7.95701 27.4488 8.00101 27.4798V27.4678C10.3431 29.116 13.1371 30.0005 16.001 30.0005C18.8649 30.0005 21.6589 29.116 24.001 27.4678V27.4798C24.045 27.4488 24.084 27.4098 24.129 27.3798C24.469 27.1348 24.799 26.8738 25.119 26.5978C25.212 26.5178 25.307 26.4388 25.399 26.3558C25.701 26.0808 25.989 25.7898 26.269 25.4858C26.362 25.3858 26.458 25.2888 26.549 25.1858C26.62 25.1028 26.701 25.0308 26.771 24.9458L26.749 24.9298ZM16 7.99981C16.89 7.99981 17.7601 8.26374 18.5001 8.7582C19.2401 9.25267 19.8169 9.95547 20.1575 10.7777C20.4981 11.6 20.5872 12.5048 20.4135 13.3777C20.2399 14.2506 19.8113 15.0525 19.182 15.6818C18.5526 16.3111 17.7508 16.7397 16.8779 16.9133C16.005 17.087 15.1002 16.9979 14.2779 16.6573C13.4557 16.3167 12.7529 15.7399 12.2584 14.9999C11.7639 14.2599 11.5 13.3898 11.5 12.4998C11.5 11.3063 11.9741 10.1617 12.818 9.31783C13.6619 8.47392 14.8065 7.99981 16 7.99981V7.99981ZM8.00701 24.9298C8.02435 23.6168 8.55795 22.3634 9.49236 21.4408C10.4268 20.5181 11.6869 20.0005 13 19.9998H19C20.3132 20.0005 21.5732 20.5181 22.5076 21.4408C23.4421 22.3634 23.9757 23.6168 23.993 24.9298C21.7998 26.9061 18.9523 27.9999 16 27.9999C13.0477 27.9999 10.2002 26.9061 8.00701 24.9298V24.9298Z" fill="#076735"/>
</svg>
