<svg width="50" height="53" viewBox="0 0 50 53" fill="none" xmlns="http://www.w3.org/2000/svg">
<path d="M48.0384 43.2523C46.7842 40.2772 44.964 37.5748 42.6794 35.2956C40.4017 33.0099 37.7036 31.1875 34.734 29.929C34.7074 29.9157 34.6808 29.909 34.6542 29.8957C38.7965 26.8995 41.4893 22.019 41.4893 16.5126C41.4893 7.3907 34.109 0 25 0C15.891 0 8.51075 7.3907 8.51075 16.5126C8.51075 22.019 11.2035 26.8995 15.3458 29.9024C15.3192 29.9157 15.2926 29.9224 15.266 29.9357C12.2873 31.1941 9.61446 32.9985 7.3206 35.3023C5.03809 37.5832 3.21826 40.2851 1.96159 43.2589C0.727038 46.1703 0.0612159 49.2916 0.000166262 52.454C-0.00160836 52.5251 0.0108385 52.5958 0.0367739 52.662C0.0627093 52.7281 0.101608 52.7884 0.151179 52.8393C0.200749 52.8902 0.259988 52.9306 0.325405 52.9582C0.390821 52.9858 0.461093 53 0.532078 53H4.52141C4.81396 53 5.04668 52.767 5.05332 52.4807C5.1863 47.3405 7.24746 42.5265 10.8911 38.8778C14.661 35.1025 19.6676 33.0251 25 33.0251C30.3324 33.0251 35.339 35.1025 39.109 38.8778C42.7525 42.5265 44.8137 47.3405 44.9467 52.4807C44.9533 52.7736 45.186 53 45.4786 53H49.4679C49.5389 53 49.6092 52.9858 49.6746 52.9582C49.74 52.9306 49.7993 52.8902 49.8488 52.8393C49.8984 52.7884 49.9373 52.7281 49.9632 52.662C49.9892 52.5958 50.0016 52.5251 49.9998 52.454C49.9333 49.2714 49.2751 46.1753 48.0384 43.2523V43.2523ZM25 27.9648C21.9482 27.9648 19.0758 26.773 16.9149 24.609C14.7541 22.4451 13.5639 19.5687 13.5639 16.5126C13.5639 13.4564 14.7541 10.58 16.9149 8.41608C19.0758 6.25214 21.9482 5.0603 25 5.0603C28.0518 5.0603 30.9242 6.25214 33.0851 8.41608C35.2459 10.58 36.4361 13.4564 36.4361 16.5126C36.4361 19.5687 35.2459 22.4451 33.0851 24.609C30.9242 26.773 28.0518 27.9648 25 27.9648Z" fill="#076735"/>
</svg>
