<svg width="40" height="40" viewBox="0 0 40 40" fill="none" xmlns="http://www.w3.org/2000/svg">
    <mask id="path-1-inside-1_404_884" fill="white">
        <path
            d="M33.0433 11.6752C33.236 11.1378 33.3341 10.5711 33.3333 10.0002C33.3333 8.6741 32.8066 7.40234 31.8689 6.46465C30.9312 5.52697 29.6594 5.00019 28.3333 5.00019C27.2443 5.00164 26.1863 5.36253 25.3233 6.02685C24.7095 5.19175 23.9078 4.51278 22.9831 4.04481C22.0583 3.57685 21.0364 3.33301 20 3.33301C18.9636 3.33301 17.9417 3.57685 17.0169 4.04481C16.0922 4.51278 15.2905 5.19175 14.6767 6.02685C13.8138 5.36253 12.7557 5.00164 11.6667 5.00019C10.3406 5.00019 9.06882 5.52697 8.13114 6.46465C7.19346 7.40234 6.66667 8.6741 6.66667 10.0002C6.66686 10.5683 6.76496 11.1321 6.95667 11.6669C5.63059 11.6284 4.34355 12.1183 3.37867 13.0288C2.4138 13.9393 1.85013 15.1958 1.81167 16.5219C1.77322 17.8479 2.26312 19.135 3.17361 20.0999C4.0841 21.0647 5.34059 21.6284 6.66667 21.6669C7.38789 21.6632 8.09956 21.5016 8.75167 21.1935C9.34167 21.6319 10.085 22.1302 10.8517 22.6552C12.3489 23.5563 13.7403 24.6224 15 25.8335C14.6149 28.6684 14.0662 31.4787 13.3567 34.2502C13.3389 34.3221 13.331 34.3961 13.3333 34.4702C13.375 35.8202 15.6117 36.5052 19.9767 36.5102H20.0233C24.3883 36.5102 26.625 35.8202 26.6667 34.4702C26.669 34.3961 26.6611 34.3221 26.6433 34.2502C25.9466 31.5087 25.3936 28.7327 24.9867 25.9335C26.1183 24.7716 27.3995 23.7655 28.7967 22.9419C29.7267 22.3119 30.6017 21.7169 31.2583 21.1985C31.9079 21.5032 32.6159 21.663 33.3333 21.6669C34.002 21.6667 34.6639 21.5323 35.2798 21.2718C35.8956 21.0113 36.453 20.6299 36.9188 20.1502C37.3847 19.6705 37.7496 19.1022 37.992 18.479C38.2343 17.8557 38.3492 17.1902 38.3298 16.5218C38.3104 15.8534 38.1571 15.1956 37.879 14.5875C37.6009 13.9794 37.2037 13.4332 36.7108 12.9813C36.2179 12.5294 35.6393 12.181 35.0094 11.9567C34.3795 11.7323 33.7109 11.6366 33.0433 11.6752ZM27.8617 21.5619C24.7133 23.6952 23.3333 24.7435 23.3333 25.8335C23.687 28.6602 24.218 31.4618 24.9233 34.2219C23.3456 34.7789 21.6668 34.9914 20 34.8452C18.3332 34.9914 16.6544 34.7789 15.0767 34.2219C15.782 31.4618 16.3131 28.6602 16.6667 25.8335C16.6667 24.6935 15.1783 23.5685 11.785 21.2735C11.215 20.8885 10.675 20.5202 10.2 20.1835C10.8138 19.5707 11.2582 18.8093 11.49 17.9735C11.6267 18.0285 11.77 18.0585 11.91 18.1002C14.1383 21.0902 15.85 22.6002 17.0067 22.6002C17.1294 22.601 17.2514 22.5824 17.3683 22.5452C17.8017 22.4035 18.3217 21.9935 18.3333 20.8352C18.3567 18.6152 18.35 17.1685 18.3417 16.4119C19.4279 16.7043 20.5721 16.7043 21.6583 16.4119C21.6583 17.1602 21.6433 18.6152 21.6667 20.8352C21.6783 21.9935 22.1983 22.4035 22.6317 22.5452C22.7486 22.5824 22.8706 22.601 22.9933 22.6002C24.15 22.6002 25.8617 21.0835 28.09 18.1002C28.2283 18.0585 28.3717 18.0302 28.5067 17.9752C28.7403 18.8204 29.1927 19.589 29.8183 20.2035C29.2617 20.6135 28.5767 21.0769 27.8617 21.5619ZM16.68 17.0002C16.68 17.8185 16.68 19.0702 16.6667 20.7919C15.7215 20.0408 14.8699 19.1791 14.13 18.2252C15.0774 18.062 15.9605 17.6378 16.68 17.0002ZM23.3333 20.7969C23.315 19.0735 23.3167 17.8219 23.32 17.0035C24.0398 17.6409 24.9227 18.0656 25.87 18.2302C25.1296 19.1836 24.278 20.0453 23.3333 20.7969ZM33.3333 20.0002C32.8939 20.0002 32.4588 19.9133 32.0531 19.7446C31.6474 19.5758 31.279 19.3285 30.9692 19.0168C30.6594 18.7052 30.4143 18.3353 30.248 17.9286C30.0816 17.5219 29.9974 17.0863 30 16.6469C30 16.4921 29.9569 16.3404 29.8755 16.2087C29.7942 16.0771 29.6778 15.9707 29.5394 15.9015C29.4009 15.8323 29.246 15.803 29.0918 15.8169C28.9377 15.8308 28.7905 15.8873 28.6667 15.9802C28.2651 16.2686 27.8052 16.4656 27.3194 16.5575C26.8335 16.6493 26.3335 16.6336 25.8543 16.5117C25.3751 16.3897 24.9285 16.1643 24.5457 15.8514C24.1628 15.5385 23.8532 15.1455 23.6383 14.7002C23.5907 14.5949 23.5216 14.5006 23.4355 14.4234C23.3494 14.3462 23.2482 14.2878 23.1383 14.2519C23.0287 14.2157 22.9126 14.203 22.7977 14.2148C22.6828 14.2266 22.5717 14.2625 22.4717 14.3202C21.7259 14.7619 20.8751 14.995 20.0083 14.995C19.1416 14.995 18.2908 14.7619 17.545 14.3202C17.4445 14.2636 17.3333 14.2285 17.2186 14.2172C17.1038 14.2058 16.9879 14.2184 16.8783 14.2541C16.7686 14.2898 16.6675 14.3479 16.5815 14.4247C16.4954 14.5015 16.4263 14.5953 16.3783 14.7002C16.1641 15.1482 15.8539 15.5436 15.4699 15.8585C15.0858 16.1734 14.6373 16.4 14.1559 16.5222C13.6746 16.6445 13.1723 16.6595 12.6845 16.5661C12.1967 16.4727 11.7355 16.2733 11.3333 15.9819C11.2088 15.89 11.0611 15.8346 10.9069 15.822C10.7526 15.8093 10.5979 15.8399 10.46 15.9102C10.3211 15.9817 10.2046 16.0902 10.1234 16.2237C10.0423 16.3573 9.99956 16.5106 10 16.6669C10 17.3261 9.80451 17.9706 9.43824 18.5188C9.07197 19.0669 8.55137 19.4942 7.94229 19.7465C7.3332 19.9987 6.66298 20.0648 6.01637 19.9361C5.36977 19.8075 4.77583 19.4901 4.30965 19.0239C3.84348 18.5577 3.52601 17.9638 3.39739 17.3172C3.26877 16.6706 3.33478 16.0003 3.58708 15.3912C3.83937 14.7822 4.26661 14.2616 4.81477 13.8953C5.36294 13.529 6.0074 13.3335 6.66667 13.3335C7.39052 13.3357 8.09346 13.5765 8.66667 14.0185C8.79221 14.1094 8.9406 14.1635 9.09517 14.1747C9.24974 14.1858 9.40436 14.1537 9.54167 14.0819C9.68058 14.0083 9.79672 13.8981 9.87751 13.7633C9.95829 13.6284 10.0007 13.474 10 13.3169C10 13.1875 9.96989 13.0599 9.91203 12.9442C9.85417 12.8285 9.77017 12.7278 9.66668 12.6502C9.28995 12.3701 8.97691 12.0133 8.7482 11.6034C8.51949 11.1934 8.38032 10.7396 8.33987 10.2719C8.29942 9.80425 8.35861 9.3333 8.51353 8.89017C8.66846 8.44704 8.9156 8.0418 9.23864 7.7012C9.56168 7.36059 9.95328 7.09236 10.3876 6.91422C10.8219 6.73607 11.2891 6.65205 11.7582 6.6677C12.2274 6.68336 12.6879 6.79833 13.1094 7.00504C13.5309 7.21174 13.9037 7.50547 14.2033 7.86685C14.2915 7.97197 14.4042 8.05371 14.5315 8.10482C14.6588 8.15592 14.7967 8.17481 14.9331 8.1598C15.0694 8.1448 15.2 8.09637 15.3131 8.01881C15.4263 7.94125 15.5185 7.83696 15.5817 7.71519C15.9958 6.89958 16.6276 6.21457 17.4072 5.73608C18.1868 5.25758 19.0836 5.0043 19.9983 5.0043C20.913 5.0043 21.8099 5.25758 22.5895 5.73608C23.369 6.21457 24.0009 6.89958 24.415 7.71519C24.4781 7.83699 24.5703 7.94134 24.6834 8.01897C24.7965 8.0966 24.927 8.1451 25.0633 8.16019C25.1998 8.17519 25.3378 8.15626 25.4651 8.10509C25.5925 8.05392 25.7052 7.97208 25.7933 7.86685C26.0943 7.51019 26.4672 7.22104 26.8875 7.01827C27.3079 6.8155 27.7663 6.70368 28.2328 6.69011C28.6993 6.67654 29.1634 6.76153 29.5948 6.93952C30.0263 7.11751 30.4153 7.3845 30.7365 7.72306C31.0577 8.06162 31.3039 8.46413 31.459 8.90431C31.6141 9.34448 31.6746 9.81242 31.6366 10.2776C31.5985 10.7427 31.4628 11.1946 31.2382 11.6037C31.0136 12.0128 30.7053 12.37 30.3333 12.6519C30.2292 12.7367 30.1452 12.8437 30.0876 12.9651C30.0299 13.0865 30 13.2192 30 13.3535C30 13.5083 30.0431 13.66 30.1245 13.7916C30.2058 13.9233 30.3222 14.0297 30.4607 14.0989C30.5991 14.1681 30.754 14.1974 30.9082 14.1835C31.0623 14.1696 31.2095 14.113 31.3333 14.0202C31.9063 13.5776 32.6093 13.3362 33.3333 13.3335C34.2174 13.3335 35.0652 13.6847 35.6904 14.3098C36.3155 14.935 36.6667 15.7828 36.6667 16.6669C36.6667 17.5509 36.3155 18.3988 35.6904 19.0239C35.0652 19.649 34.2174 20.0002 33.3333 20.0002Z" />
    </mask>
    <path
        d="M33.0433 11.6752C33.236 11.1378 33.3341 10.5711 33.3333 10.0002C33.3333 8.6741 32.8066 7.40234 31.8689 6.46465C30.9312 5.52697 29.6594 5.00019 28.3333 5.00019C27.2443 5.00164 26.1863 5.36253 25.3233 6.02685C24.7095 5.19175 23.9078 4.51278 22.9831 4.04481C22.0583 3.57685 21.0364 3.33301 20 3.33301C18.9636 3.33301 17.9417 3.57685 17.0169 4.04481C16.0922 4.51278 15.2905 5.19175 14.6767 6.02685C13.8138 5.36253 12.7557 5.00164 11.6667 5.00019C10.3406 5.00019 9.06882 5.52697 8.13114 6.46465C7.19346 7.40234 6.66667 8.6741 6.66667 10.0002C6.66686 10.5683 6.76496 11.1321 6.95667 11.6669C5.63059 11.6284 4.34355 12.1183 3.37867 13.0288C2.4138 13.9393 1.85013 15.1958 1.81167 16.5219C1.77322 17.8479 2.26312 19.135 3.17361 20.0999C4.0841 21.0647 5.34059 21.6284 6.66667 21.6669C7.38789 21.6632 8.09956 21.5016 8.75167 21.1935C9.34167 21.6319 10.085 22.1302 10.8517 22.6552C12.3489 23.5563 13.7403 24.6224 15 25.8335C14.6149 28.6684 14.0662 31.4787 13.3567 34.2502C13.3389 34.3221 13.331 34.3961 13.3333 34.4702C13.375 35.8202 15.6117 36.5052 19.9767 36.5102H20.0233C24.3883 36.5102 26.625 35.8202 26.6667 34.4702C26.669 34.3961 26.6611 34.3221 26.6433 34.2502C25.9466 31.5087 25.3936 28.7327 24.9867 25.9335C26.1183 24.7716 27.3995 23.7655 28.7967 22.9419C29.7267 22.3119 30.6017 21.7169 31.2583 21.1985C31.9079 21.5032 32.6159 21.663 33.3333 21.6669C34.002 21.6667 34.6639 21.5323 35.2798 21.2718C35.8956 21.0113 36.453 20.6299 36.9188 20.1502C37.3847 19.6705 37.7496 19.1022 37.992 18.479C38.2343 17.8557 38.3492 17.1902 38.3298 16.5218C38.3104 15.8534 38.1571 15.1956 37.879 14.5875C37.6009 13.9794 37.2037 13.4332 36.7108 12.9813C36.2179 12.5294 35.6393 12.181 35.0094 11.9567C34.3795 11.7323 33.7109 11.6366 33.0433 11.6752ZM27.8617 21.5619C24.7133 23.6952 23.3333 24.7435 23.3333 25.8335C23.687 28.6602 24.218 31.4618 24.9233 34.2219C23.3456 34.7789 21.6668 34.9914 20 34.8452C18.3332 34.9914 16.6544 34.7789 15.0767 34.2219C15.782 31.4618 16.3131 28.6602 16.6667 25.8335C16.6667 24.6935 15.1783 23.5685 11.785 21.2735C11.215 20.8885 10.675 20.5202 10.2 20.1835C10.8138 19.5707 11.2582 18.8093 11.49 17.9735C11.6267 18.0285 11.77 18.0585 11.91 18.1002C14.1383 21.0902 15.85 22.6002 17.0067 22.6002C17.1294 22.601 17.2514 22.5824 17.3683 22.5452C17.8017 22.4035 18.3217 21.9935 18.3333 20.8352C18.3567 18.6152 18.35 17.1685 18.3417 16.4119C19.4279 16.7043 20.5721 16.7043 21.6583 16.4119C21.6583 17.1602 21.6433 18.6152 21.6667 20.8352C21.6783 21.9935 22.1983 22.4035 22.6317 22.5452C22.7486 22.5824 22.8706 22.601 22.9933 22.6002C24.15 22.6002 25.8617 21.0835 28.09 18.1002C28.2283 18.0585 28.3717 18.0302 28.5067 17.9752C28.7403 18.8204 29.1927 19.589 29.8183 20.2035C29.2617 20.6135 28.5767 21.0769 27.8617 21.5619ZM16.68 17.0002C16.68 17.8185 16.68 19.0702 16.6667 20.7919C15.7215 20.0408 14.8699 19.1791 14.13 18.2252C15.0774 18.062 15.9605 17.6378 16.68 17.0002ZM23.3333 20.7969C23.315 19.0735 23.3167 17.8219 23.32 17.0035C24.0398 17.6409 24.9227 18.0656 25.87 18.2302C25.1296 19.1836 24.278 20.0453 23.3333 20.7969ZM33.3333 20.0002C32.8939 20.0002 32.4588 19.9133 32.0531 19.7446C31.6474 19.5758 31.279 19.3285 30.9692 19.0168C30.6594 18.7052 30.4143 18.3353 30.248 17.9286C30.0816 17.5219 29.9974 17.0863 30 16.6469C30 16.4921 29.9569 16.3404 29.8755 16.2087C29.7942 16.0771 29.6778 15.9707 29.5394 15.9015C29.4009 15.8323 29.246 15.803 29.0918 15.8169C28.9377 15.8308 28.7905 15.8873 28.6667 15.9802C28.2651 16.2686 27.8052 16.4656 27.3194 16.5575C26.8335 16.6493 26.3335 16.6336 25.8543 16.5117C25.3751 16.3897 24.9285 16.1643 24.5457 15.8514C24.1628 15.5385 23.8532 15.1455 23.6383 14.7002C23.5907 14.5949 23.5216 14.5006 23.4355 14.4234C23.3494 14.3462 23.2482 14.2878 23.1383 14.2519C23.0287 14.2157 22.9126 14.203 22.7977 14.2148C22.6828 14.2266 22.5717 14.2625 22.4717 14.3202C21.7259 14.7619 20.8751 14.995 20.0083 14.995C19.1416 14.995 18.2908 14.7619 17.545 14.3202C17.4445 14.2636 17.3333 14.2285 17.2186 14.2172C17.1038 14.2058 16.9879 14.2184 16.8783 14.2541C16.7686 14.2898 16.6675 14.3479 16.5815 14.4247C16.4954 14.5015 16.4263 14.5953 16.3783 14.7002C16.1641 15.1482 15.8539 15.5436 15.4699 15.8585C15.0858 16.1734 14.6373 16.4 14.1559 16.5222C13.6746 16.6445 13.1723 16.6595 12.6845 16.5661C12.1967 16.4727 11.7355 16.2733 11.3333 15.9819C11.2088 15.89 11.0611 15.8346 10.9069 15.822C10.7526 15.8093 10.5979 15.8399 10.46 15.9102C10.3211 15.9817 10.2046 16.0902 10.1234 16.2237C10.0423 16.3573 9.99956 16.5106 10 16.6669C10 17.3261 9.80451 17.9706 9.43824 18.5188C9.07197 19.0669 8.55137 19.4942 7.94229 19.7465C7.3332 19.9987 6.66298 20.0648 6.01637 19.9361C5.36977 19.8075 4.77583 19.4901 4.30965 19.0239C3.84348 18.5577 3.52601 17.9638 3.39739 17.3172C3.26877 16.6706 3.33478 16.0003 3.58708 15.3912C3.83937 14.7822 4.26661 14.2616 4.81477 13.8953C5.36294 13.529 6.0074 13.3335 6.66667 13.3335C7.39052 13.3357 8.09346 13.5765 8.66667 14.0185C8.79221 14.1094 8.9406 14.1635 9.09517 14.1747C9.24974 14.1858 9.40436 14.1537 9.54167 14.0819C9.68058 14.0083 9.79672 13.8981 9.87751 13.7633C9.95829 13.6284 10.0007 13.474 10 13.3169C10 13.1875 9.96989 13.0599 9.91203 12.9442C9.85417 12.8285 9.77017 12.7278 9.66668 12.6502C9.28995 12.3701 8.97691 12.0133 8.7482 11.6034C8.51949 11.1934 8.38032 10.7396 8.33987 10.2719C8.29942 9.80425 8.35861 9.3333 8.51353 8.89017C8.66846 8.44704 8.9156 8.0418 9.23864 7.7012C9.56168 7.36059 9.95328 7.09236 10.3876 6.91422C10.8219 6.73607 11.2891 6.65205 11.7582 6.6677C12.2274 6.68336 12.6879 6.79833 13.1094 7.00504C13.5309 7.21174 13.9037 7.50547 14.2033 7.86685C14.2915 7.97197 14.4042 8.05371 14.5315 8.10482C14.6588 8.15592 14.7967 8.17481 14.9331 8.1598C15.0694 8.1448 15.2 8.09637 15.3131 8.01881C15.4263 7.94125 15.5185 7.83696 15.5817 7.71519C15.9958 6.89958 16.6276 6.21457 17.4072 5.73608C18.1868 5.25758 19.0836 5.0043 19.9983 5.0043C20.913 5.0043 21.8099 5.25758 22.5895 5.73608C23.369 6.21457 24.0009 6.89958 24.415 7.71519C24.4781 7.83699 24.5703 7.94134 24.6834 8.01897C24.7965 8.0966 24.927 8.1451 25.0633 8.16019C25.1998 8.17519 25.3378 8.15626 25.4651 8.10509C25.5925 8.05392 25.7052 7.97208 25.7933 7.86685C26.0943 7.51019 26.4672 7.22104 26.8875 7.01827C27.3079 6.8155 27.7663 6.70368 28.2328 6.69011C28.6993 6.67654 29.1634 6.76153 29.5948 6.93952C30.0263 7.11751 30.4153 7.3845 30.7365 7.72306C31.0577 8.06162 31.3039 8.46413 31.459 8.90431C31.6141 9.34448 31.6746 9.81242 31.6366 10.2776C31.5985 10.7427 31.4628 11.1946 31.2382 11.6037C31.0136 12.0128 30.7053 12.37 30.3333 12.6519C30.2292 12.7367 30.1452 12.8437 30.0876 12.9651C30.0299 13.0865 30 13.2192 30 13.3535C30 13.5083 30.0431 13.66 30.1245 13.7916C30.2058 13.9233 30.3222 14.0297 30.4607 14.0989C30.5991 14.1681 30.754 14.1974 30.9082 14.1835C31.0623 14.1696 31.2095 14.113 31.3333 14.0202C31.9063 13.5776 32.6093 13.3362 33.3333 13.3335C34.2174 13.3335 35.0652 13.6847 35.6904 14.3098C36.3155 14.935 36.6667 15.7828 36.6667 16.6669C36.6667 17.5509 36.3155 18.3988 35.6904 19.0239C35.0652 19.649 34.2174 20.0002 33.3333 20.0002Z"
        fill="currentColor" stroke="currentColor" stroke-width="4" mask="url(#path-1-inside-1_404_884)" />
</svg>